<!DOCTYPE svg PUBLIC "-//W3C//DTD SVG 1.1//EN" "http://www.w3.org/Graphics/SVG/1.1/DTD/svg11.dtd">
<!-- Uploaded to: SVG Repo, www.svgrepo.com, Transformed by: SVG Repo Mixer Tools -->
<svg height="800px" width="800px" version="1.1" id="Layer_1" xmlns="http://www.w3.org/2000/svg" xmlns:xlink="http://www.w3.org/1999/xlink" viewBox="0 0 512 512" xml:space="preserve" fill="#0518a3" stroke="#0518a3">
<g id="SVGRepo_bgCarrier" stroke-width="0"/>
<g id="SVGRepo_tracerCarrier" stroke-linecap="round" stroke-linejoin="round"/>
<g id="SVGRepo_iconCarrier"> <path style="fill:#ffffff;" d="M465.883,420.656l-4.47-65.23c-1.29-18.831-22.48-29.203-38.144-18.673l-54.261,36.479 c-15.666,10.532-14.055,34.073,2.9,42.373l1.864,0.913c-26.002,18.19-58.005,29.845-92.647,33.655V150.416 c27.55-10.235,47.236-36.788,47.236-67.856c0-39.899-32.462-72.36-72.361-72.36s-72.361,32.461-72.361,72.361 c0,31.069,19.685,57.621,47.236,67.856v299.756c-34.643-3.81-66.645-15.466-92.646-33.655l1.863-0.913 c16.954-8.3,18.565-31.841,2.9-42.373L88.73,336.752c-15.664-10.531-36.854-0.157-38.144,18.673l-4.47,65.23 c-1.29,18.833,18.29,31.999,35.244,23.7l7.019-3.436c43.022,38.852,103.193,60.882,167.621,60.882s124.599-22.03,167.62-60.881 l7.019,3.436C447.593,452.656,467.174,439.489,465.883,420.656z M256,60.45c12.192,0,22.11,9.919,22.11,22.11 s-9.919,22.11-22.11,22.11s-22.11-9.919-22.11-22.11S243.808,60.45,256,60.45z"/> <path style="fill:#ffffff;" d="M296.2,235.322h-80.401c-13.876,0-25.126-11.249-25.126-25.126c0-13.876,11.249-25.126,25.126-25.126 H296.2c13.876,0,25.126,11.249,25.126,25.126C321.326,224.073,310.077,235.322,296.2,235.322z"/> <path d="M476.059,419.958l-4.47-65.23c-0.858-12.522-8.1-23.292-19.372-28.811c-11.273-5.519-24.223-4.632-34.636,2.37 l-54.261,36.479c-10.417,7.003-16.125,18.66-15.268,31.184c0.512,7.491,3.31,14.355,7.889,19.845 c-19.182,11.104-41.144,18.82-64.615,22.687V245.521h4.876c19.477,0,35.324-15.847,35.324-35.325 c0-19.477-15.846-35.324-35.324-35.324h-4.876v-17.704c28.523-13.562,47.236-42.693,47.236-74.608C338.561,37.036,301.524,0,256,0 s-82.561,37.036-82.561,82.561c0,31.915,18.712,61.046,47.236,74.608v17.704h-4.876c-19.477,0-35.324,15.847-35.324,35.324 c0,19.478,15.847,35.325,35.324,35.325h4.876v192.961c-23.471-3.868-45.433-11.583-64.615-22.687 c4.579-5.488,7.376-12.352,7.889-19.845c0.857-12.523-4.851-24.18-15.268-31.184L94.42,328.287 c-10.416-7.003-23.364-7.888-34.636-2.37c-11.272,5.519-18.515,16.289-19.372,28.811l-4.47,65.23 c-0.859,12.524,4.848,24.181,15.264,31.186c10.415,7.005,23.366,7.891,34.64,2.372l0.924-0.452 c21.302,18.076,46.13,32.34,73.904,42.45C190.73,506.454,222.803,512,256,512c33.197,0,65.27-5.546,95.326-16.487 c27.774-10.109,52.603-24.374,73.904-42.45l0.924,0.452c11.274,5.52,24.223,4.632,34.64-2.372 C471.211,444.14,476.918,432.482,476.059,419.958z M234.427,140.855c-24.277-9.018-40.588-32.446-40.588-58.295 C193.838,48.284,221.725,20.398,256,20.398c34.275,0,62.162,27.886,62.162,62.162c0,25.85-16.311,49.276-40.588,58.295 c-3.996,1.485-6.648,5.297-6.648,9.561v24.457h-29.853v-24.457C241.073,146.153,238.423,142.34,234.427,140.855z M200.873,210.196 c0-8.23,6.696-14.926,14.926-14.926H296.2c8.23,0,14.926,6.696,14.926,14.926c0,8.231-6.696,14.927-14.926,14.927h-80.401 C207.569,225.123,200.873,218.427,200.873,210.196z M449.412,434.217c-4.296,2.889-9.638,3.255-14.289,0.978l-7.019-3.436 c-3.745-1.834-8.227-1.202-11.32,1.591c-41.595,37.565-98.696,58.252-160.783,58.252s-119.188-20.687-160.784-58.251 c-3.092-2.794-7.575-3.424-11.32-1.591l-7.019,3.436c-4.65,2.276-9.991,1.911-14.288-0.978s-6.651-7.697-6.296-12.863l4.47-65.23 c0.354-5.165,3.341-9.608,7.991-11.884c4.65-2.274,9.99-1.91,14.287,0.977l54.261,36.479c4.297,2.889,6.651,7.697,6.298,12.863 c-0.354,5.166-3.341,9.609-7.991,11.885l-1.863,0.913c-3.242,1.588-5.405,4.77-5.684,8.37c-0.279,3.599,1.364,7.078,4.321,9.148 c27.435,19.193,61.109,31.447,97.378,35.436c2.879,0.315,5.763-0.607,7.922-2.542c2.159-1.935,3.393-4.697,3.393-7.596V245.521 h29.853v204.651c0,2.9,1.233,5.662,3.393,7.596c2.159,1.934,5.038,2.858,7.922,2.542c36.269-3.989,69.942-16.243,97.378-35.436 c2.958-2.069,4.602-5.548,4.321-9.148c-0.279-3.599-2.442-6.782-5.685-8.37l-1.863-0.912c-4.651-2.276-7.638-6.719-7.991-11.885 c-0.353-5.166,2.001-9.974,6.298-12.863l54.261-36.479c4.296-2.887,9.638-3.253,14.287-0.977c4.65,2.276,7.637,6.719,7.991,11.884 l4.47,65.23C456.063,426.518,453.708,431.327,449.412,434.217z"/> <path d="M288.309,82.561c0-17.816-14.494-32.31-32.309-32.31s-32.309,14.494-32.309,32.31c0,17.815,14.494,32.309,32.309,32.309 S288.309,100.375,288.309,82.561z M244.089,82.561c0-6.567,5.343-11.912,11.911-11.912c6.567,0,11.911,5.343,11.911,11.912 S262.567,94.471,256,94.471C249.433,94.471,244.089,89.128,244.089,82.561z"/> </g>
</svg>